<mxfile host="app.diagrams.net" modified="2023-05-09T04:26:48.464Z" agent="Mozilla/5.0 (Windows NT 10.0; Win64; x64) AppleWebKit/537.36 (KHTML, like Gecko) Chrome/113.0.0.0 Safari/537.36 Edg/113.0.1774.35" etag="0DbCz5A6G-gdup1g9Qlw" version="21.2.9" type="github">
  <diagram name="第 1 页" id="ZHtbwnwESCGqk5BUtqKa">
    <mxGraphModel dx="928" dy="579" grid="1" gridSize="10" guides="1" tooltips="1" connect="1" arrows="1" fold="1" page="1" pageScale="1" pageWidth="827" pageHeight="1169" math="0" shadow="0">
      <root>
        <mxCell id="0" />
        <mxCell id="1" parent="0" />
        <mxCell id="7yJh9d8cDHfY0ZQC9ODF-1" value="" style="rounded=1;whiteSpace=wrap;html=1;fillColor=#dae8fc;strokeColor=#6c8ebf;opacity=75;" vertex="1" parent="1">
          <mxGeometry x="120" y="240" width="80" height="80" as="geometry" />
        </mxCell>
        <mxCell id="7yJh9d8cDHfY0ZQC9ODF-4" value="" style="rounded=1;whiteSpace=wrap;html=1;fillColor=#dae8fc;strokeColor=#6c8ebf;opacity=75;" vertex="1" parent="1">
          <mxGeometry x="130" y="280" width="80" height="80" as="geometry" />
        </mxCell>
        <mxCell id="7yJh9d8cDHfY0ZQC9ODF-5" value="" style="rounded=1;whiteSpace=wrap;html=1;fillColor=#dae8fc;strokeColor=#6c8ebf;opacity=75;" vertex="1" parent="1">
          <mxGeometry x="140" y="320" width="80" height="80" as="geometry" />
        </mxCell>
        <mxCell id="7yJh9d8cDHfY0ZQC9ODF-6" value="" style="rounded=1;whiteSpace=wrap;html=1;fillColor=#d5e8d4;strokeColor=#82b366;opacity=75;" vertex="1" parent="1">
          <mxGeometry x="250" y="290" width="50" height="50" as="geometry" />
        </mxCell>
        <mxCell id="7yJh9d8cDHfY0ZQC9ODF-7" value="" style="rounded=1;whiteSpace=wrap;html=1;fillColor=#dae8fc;strokeColor=#6c8ebf;opacity=75;" vertex="1" parent="1">
          <mxGeometry x="150" y="360" width="80" height="80" as="geometry" />
        </mxCell>
        <mxCell id="7yJh9d8cDHfY0ZQC9ODF-11" value="" style="rounded=1;whiteSpace=wrap;html=1;fillColor=#d5e8d4;strokeColor=#82b366;opacity=75;" vertex="1" parent="1">
          <mxGeometry x="260" y="320" width="50" height="50" as="geometry" />
        </mxCell>
        <mxCell id="7yJh9d8cDHfY0ZQC9ODF-12" value="" style="rounded=1;whiteSpace=wrap;html=1;fillColor=#d5e8d4;strokeColor=#82b366;opacity=75;" vertex="1" parent="1">
          <mxGeometry x="270" y="350" width="50" height="50" as="geometry" />
        </mxCell>
        <mxCell id="7yJh9d8cDHfY0ZQC9ODF-15" value="" style="rounded=1;whiteSpace=wrap;html=1;fillColor=#dae8fc;strokeColor=#6c8ebf;opacity=75;" vertex="1" parent="1">
          <mxGeometry x="330" y="250" width="50" height="50" as="geometry" />
        </mxCell>
        <mxCell id="7yJh9d8cDHfY0ZQC9ODF-16" value="" style="rounded=1;whiteSpace=wrap;html=1;fillColor=#dae8fc;strokeColor=#6c8ebf;opacity=75;" vertex="1" parent="1">
          <mxGeometry x="340" y="275" width="50" height="50" as="geometry" />
        </mxCell>
        <mxCell id="7yJh9d8cDHfY0ZQC9ODF-17" value="" style="rounded=1;whiteSpace=wrap;html=1;fillColor=#dae8fc;strokeColor=#6c8ebf;opacity=75;" vertex="1" parent="1">
          <mxGeometry x="350" y="300" width="50" height="50" as="geometry" />
        </mxCell>
        <mxCell id="7yJh9d8cDHfY0ZQC9ODF-18" value="" style="rounded=1;whiteSpace=wrap;html=1;fillColor=#dae8fc;strokeColor=#6c8ebf;opacity=75;" vertex="1" parent="1">
          <mxGeometry x="360" y="325" width="50" height="50" as="geometry" />
        </mxCell>
        <mxCell id="7yJh9d8cDHfY0ZQC9ODF-19" value="" style="rounded=1;whiteSpace=wrap;html=1;fillColor=#dae8fc;strokeColor=#6c8ebf;opacity=75;" vertex="1" parent="1">
          <mxGeometry x="370" y="350" width="50" height="50" as="geometry" />
        </mxCell>
        <mxCell id="7yJh9d8cDHfY0ZQC9ODF-20" value="" style="rounded=1;whiteSpace=wrap;html=1;fillColor=#dae8fc;strokeColor=#6c8ebf;opacity=75;" vertex="1" parent="1">
          <mxGeometry x="380" y="375" width="50" height="50" as="geometry" />
        </mxCell>
        <mxCell id="7yJh9d8cDHfY0ZQC9ODF-21" value="" style="rounded=1;whiteSpace=wrap;html=1;fillColor=#d5e8d4;strokeColor=#82b366;opacity=75;" vertex="1" parent="1">
          <mxGeometry x="440" y="265" width="35" height="35" as="geometry" />
        </mxCell>
        <mxCell id="7yJh9d8cDHfY0ZQC9ODF-22" value="" style="rounded=1;whiteSpace=wrap;html=1;fillColor=#d5e8d4;strokeColor=#82b366;opacity=75;" vertex="1" parent="1">
          <mxGeometry x="450" y="290" width="35" height="35" as="geometry" />
        </mxCell>
        <mxCell id="7yJh9d8cDHfY0ZQC9ODF-23" value="" style="rounded=1;whiteSpace=wrap;html=1;fillColor=#d5e8d4;strokeColor=#82b366;opacity=75;" vertex="1" parent="1">
          <mxGeometry x="460" y="315" width="35" height="35" as="geometry" />
        </mxCell>
        <mxCell id="7yJh9d8cDHfY0ZQC9ODF-24" value="" style="rounded=1;whiteSpace=wrap;html=1;fillColor=#d5e8d4;strokeColor=#82b366;opacity=75;" vertex="1" parent="1">
          <mxGeometry x="470" y="340" width="35" height="35" as="geometry" />
        </mxCell>
        <mxCell id="7yJh9d8cDHfY0ZQC9ODF-25" value="" style="rounded=1;whiteSpace=wrap;html=1;fillColor=#d5e8d4;strokeColor=#82b366;opacity=75;" vertex="1" parent="1">
          <mxGeometry x="480" y="365" width="35" height="35" as="geometry" />
        </mxCell>
        <mxCell id="7yJh9d8cDHfY0ZQC9ODF-26" value="" style="rounded=1;whiteSpace=wrap;html=1;fillColor=#d5e8d4;strokeColor=#82b366;opacity=75;" vertex="1" parent="1">
          <mxGeometry x="490" y="390" width="35" height="35" as="geometry" />
        </mxCell>
        <mxCell id="7yJh9d8cDHfY0ZQC9ODF-33" value="" style="rounded=1;whiteSpace=wrap;html=1;fillColor=#e1d5e7;strokeColor=#9673a6;opacity=75;" vertex="1" parent="1">
          <mxGeometry x="531" y="273" width="25" height="25" as="geometry" />
        </mxCell>
        <mxCell id="7yJh9d8cDHfY0ZQC9ODF-34" value="" style="rounded=1;whiteSpace=wrap;html=1;fillColor=#e1d5e7;strokeColor=#9673a6;opacity=75;" vertex="1" parent="1">
          <mxGeometry x="536" y="284" width="25" height="25" as="geometry" />
        </mxCell>
        <mxCell id="7yJh9d8cDHfY0ZQC9ODF-47" value="" style="rounded=1;whiteSpace=wrap;html=1;fillColor=#e1d5e7;strokeColor=#9673a6;opacity=75;" vertex="1" parent="1">
          <mxGeometry x="541" y="295" width="25" height="25" as="geometry" />
        </mxCell>
        <mxCell id="7yJh9d8cDHfY0ZQC9ODF-48" value="" style="rounded=1;whiteSpace=wrap;html=1;fillColor=#e1d5e7;strokeColor=#9673a6;opacity=75;" vertex="1" parent="1">
          <mxGeometry x="546" y="305" width="25" height="25" as="geometry" />
        </mxCell>
        <mxCell id="7yJh9d8cDHfY0ZQC9ODF-49" value="" style="rounded=1;whiteSpace=wrap;html=1;fillColor=#e1d5e7;strokeColor=#9673a6;opacity=75;" vertex="1" parent="1">
          <mxGeometry x="551" y="315" width="25" height="25" as="geometry" />
        </mxCell>
        <mxCell id="7yJh9d8cDHfY0ZQC9ODF-50" value="" style="rounded=1;whiteSpace=wrap;html=1;fillColor=#e1d5e7;strokeColor=#9673a6;opacity=75;" vertex="1" parent="1">
          <mxGeometry x="556" y="325" width="25" height="25" as="geometry" />
        </mxCell>
        <mxCell id="7yJh9d8cDHfY0ZQC9ODF-51" value="" style="rounded=1;whiteSpace=wrap;html=1;fillColor=#e1d5e7;strokeColor=#9673a6;opacity=75;" vertex="1" parent="1">
          <mxGeometry x="561" y="336" width="25" height="25" as="geometry" />
        </mxCell>
        <mxCell id="7yJh9d8cDHfY0ZQC9ODF-52" value="" style="rounded=1;whiteSpace=wrap;html=1;fillColor=#e1d5e7;strokeColor=#9673a6;opacity=75;" vertex="1" parent="1">
          <mxGeometry x="566" y="346" width="25" height="25" as="geometry" />
        </mxCell>
        <mxCell id="7yJh9d8cDHfY0ZQC9ODF-53" value="" style="rounded=1;whiteSpace=wrap;html=1;fillColor=#e1d5e7;strokeColor=#9673a6;opacity=75;" vertex="1" parent="1">
          <mxGeometry x="572" y="357" width="25" height="25" as="geometry" />
        </mxCell>
        <mxCell id="7yJh9d8cDHfY0ZQC9ODF-54" value="" style="rounded=1;whiteSpace=wrap;html=1;fillColor=#e1d5e7;strokeColor=#9673a6;opacity=75;" vertex="1" parent="1">
          <mxGeometry x="577" y="367" width="25" height="25" as="geometry" />
        </mxCell>
        <mxCell id="7yJh9d8cDHfY0ZQC9ODF-55" value="" style="rounded=1;whiteSpace=wrap;html=1;fillColor=#e1d5e7;strokeColor=#9673a6;opacity=75;" vertex="1" parent="1">
          <mxGeometry x="582" y="378" width="25" height="25" as="geometry" />
        </mxCell>
        <mxCell id="7yJh9d8cDHfY0ZQC9ODF-56" value="" style="rounded=1;whiteSpace=wrap;html=1;fillColor=#e1d5e7;strokeColor=#9673a6;opacity=75;" vertex="1" parent="1">
          <mxGeometry x="587" y="388" width="25" height="25" as="geometry" />
        </mxCell>
        <mxCell id="7yJh9d8cDHfY0ZQC9ODF-93" value="" style="rounded=1;whiteSpace=wrap;html=1;fillColor=#e1d5e7;strokeColor=#9673a6;opacity=75;" vertex="1" parent="1">
          <mxGeometry x="608" y="274" width="25" height="25" as="geometry" />
        </mxCell>
        <mxCell id="7yJh9d8cDHfY0ZQC9ODF-94" value="" style="rounded=1;whiteSpace=wrap;html=1;fillColor=#e1d5e7;strokeColor=#9673a6;opacity=75;" vertex="1" parent="1">
          <mxGeometry x="613" y="285" width="25" height="25" as="geometry" />
        </mxCell>
        <mxCell id="7yJh9d8cDHfY0ZQC9ODF-95" value="" style="rounded=1;whiteSpace=wrap;html=1;fillColor=#e1d5e7;strokeColor=#9673a6;opacity=75;" vertex="1" parent="1">
          <mxGeometry x="618" y="296" width="25" height="25" as="geometry" />
        </mxCell>
        <mxCell id="7yJh9d8cDHfY0ZQC9ODF-96" value="" style="rounded=1;whiteSpace=wrap;html=1;fillColor=#e1d5e7;strokeColor=#9673a6;opacity=75;" vertex="1" parent="1">
          <mxGeometry x="623" y="306" width="25" height="25" as="geometry" />
        </mxCell>
        <mxCell id="7yJh9d8cDHfY0ZQC9ODF-97" value="" style="rounded=1;whiteSpace=wrap;html=1;fillColor=#e1d5e7;strokeColor=#9673a6;opacity=75;" vertex="1" parent="1">
          <mxGeometry x="628" y="316" width="25" height="25" as="geometry" />
        </mxCell>
        <mxCell id="7yJh9d8cDHfY0ZQC9ODF-98" value="" style="rounded=1;whiteSpace=wrap;html=1;fillColor=#e1d5e7;strokeColor=#9673a6;opacity=75;" vertex="1" parent="1">
          <mxGeometry x="633" y="326" width="25" height="25" as="geometry" />
        </mxCell>
        <mxCell id="7yJh9d8cDHfY0ZQC9ODF-99" value="" style="rounded=1;whiteSpace=wrap;html=1;fillColor=#e1d5e7;strokeColor=#9673a6;opacity=75;" vertex="1" parent="1">
          <mxGeometry x="638" y="337" width="25" height="25" as="geometry" />
        </mxCell>
        <mxCell id="7yJh9d8cDHfY0ZQC9ODF-100" value="" style="rounded=1;whiteSpace=wrap;html=1;fillColor=#e1d5e7;strokeColor=#9673a6;opacity=75;" vertex="1" parent="1">
          <mxGeometry x="643" y="347" width="25" height="25" as="geometry" />
        </mxCell>
        <mxCell id="7yJh9d8cDHfY0ZQC9ODF-101" value="" style="rounded=1;whiteSpace=wrap;html=1;fillColor=#e1d5e7;strokeColor=#9673a6;opacity=75;" vertex="1" parent="1">
          <mxGeometry x="649" y="358" width="25" height="25" as="geometry" />
        </mxCell>
        <mxCell id="7yJh9d8cDHfY0ZQC9ODF-102" value="" style="rounded=1;whiteSpace=wrap;html=1;fillColor=#e1d5e7;strokeColor=#9673a6;opacity=75;" vertex="1" parent="1">
          <mxGeometry x="654" y="368" width="25" height="25" as="geometry" />
        </mxCell>
        <mxCell id="7yJh9d8cDHfY0ZQC9ODF-103" value="" style="rounded=1;whiteSpace=wrap;html=1;fillColor=#e1d5e7;strokeColor=#9673a6;opacity=75;" vertex="1" parent="1">
          <mxGeometry x="659" y="379" width="25" height="25" as="geometry" />
        </mxCell>
        <mxCell id="7yJh9d8cDHfY0ZQC9ODF-104" value="" style="rounded=1;whiteSpace=wrap;html=1;fillColor=#e1d5e7;strokeColor=#9673a6;opacity=75;" vertex="1" parent="1">
          <mxGeometry x="664" y="389" width="25" height="25" as="geometry" />
        </mxCell>
        <mxCell id="7yJh9d8cDHfY0ZQC9ODF-105" value="" style="rounded=1;whiteSpace=wrap;html=1;fillColor=#ffe6cc;strokeColor=#d79b00;opacity=75;" vertex="1" parent="1">
          <mxGeometry x="700" y="295" width="25" height="25" as="geometry" />
        </mxCell>
        <mxCell id="7yJh9d8cDHfY0ZQC9ODF-106" value="" style="rounded=1;whiteSpace=wrap;html=1;fillColor=#ffe6cc;strokeColor=#d79b00;opacity=75;" vertex="1" parent="1">
          <mxGeometry x="710" y="315" width="25" height="25" as="geometry" />
        </mxCell>
        <mxCell id="7yJh9d8cDHfY0ZQC9ODF-110" value="" style="rounded=1;whiteSpace=wrap;html=1;fillColor=#ffe6cc;strokeColor=#d79b00;opacity=75;" vertex="1" parent="1">
          <mxGeometry x="720" y="336" width="25" height="25" as="geometry" />
        </mxCell>
        <mxCell id="7yJh9d8cDHfY0ZQC9ODF-111" value="" style="rounded=1;whiteSpace=wrap;html=1;fillColor=#ffe6cc;strokeColor=#d79b00;opacity=75;" vertex="1" parent="1">
          <mxGeometry x="730" y="356" width="25" height="25" as="geometry" />
        </mxCell>
      </root>
    </mxGraphModel>
  </diagram>
</mxfile>
